<?xml version="1.0" standalone="no"?>
<!DOCTYPE svg PUBLIC "-//W3C//DTD SVG 20010904//EN"
 "http://www.w3.org/TR/2001/REC-SVG-20010904/DTD/svg10.dtd">
<svg version="1.0" xmlns="http://www.w3.org/2000/svg"
 width="539.000000pt" height="93.000000pt" viewBox="0 0 539.000000 93.000000"
 preserveAspectRatio="xMidYMid meet">
<metadata>
Created by potrace 1.16, written by Peter Selinger 2001-2019
</metadata>
<g transform="translate(0.000000,93.000000) scale(0.100000,-0.100000)"
fill="#000000" stroke="none">
<path d="M203 916 c-96 -30 -161 -97 -190 -195 -36 -125 25 -260 150 -328 27
-15 63 -19 225 -21 l192 -4 0 281 0 281 -167 -1 c-109 0 -183 -5 -210 -13z
m81 -5 c3 -5 22 -12 43 -16 98 -18 192 -108 204 -195 4 -25 4 -25 -84 -28 -81
-3 -90 -1 -106 20 -21 25 -79 30 -105 9 -21 -18 -21 -79 1 -103 22 -24 75 -23
98 2 16 17 31 20 111 20 l93 0 -14 -45 c-26 -89 -108 -161 -195 -172 -22 -3
-40 -10 -40 -14 0 -17 -65 -9 -115 15 -171 79 -214 292 -86 429 50 55 178 106
195 78z"/>
<path d="M204 878 c-17 -6 -44 -21 -60 -33 l-29 -24 52 -52 c50 -51 52 -52 82
-39 31 12 31 13 31 86 0 70 -1 74 -22 73 -13 -1 -37 -6 -54 -11z"/>
<path d="M82 783 c-51 -73 -54 -179 -7 -260 l27 -45 55 55 c53 53 55 56 45 86
-8 22 -8 40 0 62 10 29 8 33 -38 80 -26 27 -51 49 -55 49 -4 0 -16 -12 -27
-27z"/>
<path d="M168 523 c-44 -44 -50 -55 -38 -64 39 -26 78 -43 113 -49 l37 -7 0
76 c0 75 0 77 -29 88 -28 10 -32 8 -83 -44z"/>
<path d="M895 851 c-125 -32 -189 -140 -155 -263 33 -118 184 -177 306 -118
57 28 64 45 32 77 l-26 25 -28 -20 c-76 -55 -182 -15 -198 73 -21 110 78 184
180 134 l47 -22 24 27 c12 15 23 31 23 35 0 4 -17 17 -37 28 -43 24 -124 35
-168 24z"/>
<path d="M1253 850 c-96 -23 -113 -61 -113 -260 l0 -150 45 0 44 0 3 68 3 67
67 3 67 3 3 -68 3 -68 43 -3 42 -3 0 161 c0 176 -7 202 -59 232 -33 20 -106
28 -148 18z m110 -102 c12 -14 17 -34 15 -57 l-3 -36 -72 -3 -73 -3 0 43 c0
24 4 48 8 54 26 38 94 40 125 2z"/>
<path d="M1510 645 l0 -205 40 0 39 0 3 68 3 67 32 3 c29 3 36 -3 83 -67 l52
-71 49 0 50 0 -50 73 -49 73 34 27 c74 60 65 176 -18 218 -30 15 -59 19 -153
19 l-115 0 0 -205z m230 105 c27 -27 25 -55 -7 -80 -21 -17 -38 -20 -82 -18
l-56 3 -3 58 -3 57 66 0 c52 0 69 -4 85 -20z"/>
<path d="M1882 648 l3 -203 153 -3 152 -3 0 41 0 40 -110 0 -110 0 0 30 0 30
100 0 100 0 0 35 0 35 -100 0 -100 0 0 60 0 60 110 0 110 0 0 40 0 40 -155 0
-155 0 2 -202z"/>
<path d="M2230 645 l0 -205 155 0 155 0 0 40 0 40 -110 0 -110 0 0 30 0 30 95
0 95 0 0 35 0 35 -95 0 -95 0 0 60 0 60 110 0 110 0 0 40 0 40 -155 0 -155 0
0 -205z"/>
<path d="M2580 644 l0 -205 43 3 42 3 3 68 c3 66 4 67 30 67 36 0 42 -5 91
-77 l42 -63 49 0 c28 0 50 1 50 3 0 1 -22 33 -49 72 l-49 69 40 36 c33 29 41
43 44 80 6 58 -19 109 -66 132 -27 14 -61 18 -152 18 l-118 0 0 -206z m228
110 c22 -15 29 -49 14 -70 -14 -22 -51 -34 -101 -34 l-51 0 0 60 0 60 58 0
c36 0 66 -6 80 -16z"/>
<path d="M2970 650 l0 -200 118 0 c143 0 180 14 200 73 15 48 2 81 -44 112
l-31 21 29 26 c21 19 28 35 28 63 0 83 -41 105 -195 105 l-105 0 0 -200z m250
150 c27 -27 27 -83 -1 -108 -25 -24 -62 -32 -150 -32 l-69 0 0 80 0 80 100 0
c87 0 103 -3 120 -20z m-17 -171 c49 -13 73 -49 61 -92 -14 -49 -59 -67 -171
-67 l-93 0 0 85 0 85 83 0 c45 0 99 -5 120 -11z"/>
<path d="M3350 705 c0 -173 12 -211 82 -246 51 -26 135 -23 175 7 63 47 68 62
71 230 3 135 1 154 -12 154 -14 0 -16 -20 -16 -145 0 -159 -7 -188 -55 -219
-35 -23 -125 -23 -160 0 -48 31 -55 60 -55 219 0 122 -2 145 -15 145 -13 0
-15 -23 -15 -145z"/>
<path d="M3890 650 l0 -200 135 0 c83 0 135 4 135 10 0 6 -47 10 -120 10
l-120 0 0 190 c0 162 -2 190 -15 190 -13 0 -15 -29 -15 -200z"/>
<path d="M4210 650 l0 -200 100 0 c111 0 152 13 202 67 74 78 62 222 -24 286
-49 36 -92 47 -189 47 l-89 0 0 -200z m246 144 c56 -41 69 -70 69 -147 0 -58
-4 -78 -22 -103 -34 -47 -85 -68 -180 -72 l-83 -4 0 177 0 177 94 -4 c76 -2
100 -7 122 -24z"/>
<path d="M4615 650 l0 -200 148 0 c91 0 147 4 147 10 0 6 -52 10 -135 10
l-135 0 0 85 0 85 120 0 c157 0 159 18 3 22 l-118 3 -3 78 -3 77 131 0 c109 0
130 2 130 15 0 13 -22 15 -142 15 l-143 0 0 -200z"/>
<path d="M4950 650 c0 -169 2 -200 15 -200 11 0 15 19 17 93 l3 92 62 3 61 3
69 -95 c43 -60 75 -95 86 -96 19 0 1 30 -85 141 -33 44 -34 49 -8 49 11 0 34
13 51 28 28 25 32 35 32 76 -2 85 -39 106 -193 106 l-110 0 0 -200z m204 170
c21 -4 46 -16 54 -24 24 -24 20 -82 -6 -109 -20 -20 -33 -22 -120 -22 l-97 0
-3 69 c-2 38 -1 75 2 83 6 15 108 18 170 3z"/>
<path d="M3637 213 c-3 -5 -8 -43 -12 -85 l-7 -78 45 0 c49 0 77 18 77 50 0
11 -7 23 -16 28 -14 8 -14 10 0 21 19 16 21 42 4 59 -13 13 -84 17 -91 5z"/>
</g>
</svg>
