<svg id="Capa_1" enable-background="new 0 0 512 512" height="512" viewBox="0 0 512 512" width="512" xmlns="http://www.w3.org/2000/svg"><path d="m467 81.5h-422c-24.813 0-45 20.187-45 45v268.734h30v35.266h30v-35.266h392v35.266h30v-35.266h30v-268.734c0-24.813-20.187-45-45-45zm15 45v44.493h-121v-59.493h106c8.271 0 15 6.729 15 15zm-271 74.493v20.507c0 24.813 20.187 45 45 45s45-20.187 45-45v-20.507h82.333v164.241h-254.666v-164.241zm-30-30v-59.493h150v59.493zm60 30h30v20.507c0 8.271-6.729 15-15 15s-15-6.729-15-15zm-211-74.493c0-8.271 6.729-15 15-15h106v59.493h-121zm68.667 74.493v164.241h-68.667v-164.241zm383.333 164.241h-68.667v-164.241h68.667z"/></svg>